<?xml version="1.0" standalone="no"?>
<!DOCTYPE svg PUBLIC "-//W3C//DTD SVG 20010904//EN"
 "http://www.w3.org/TR/2001/REC-SVG-20010904/DTD/svg10.dtd">
<svg version="1.0" xmlns="http://www.w3.org/2000/svg"
 width="512.000000pt" height="512.000000pt" viewBox="0 0 512.000000 512.000000"
 preserveAspectRatio="xMidYMid meet">
<metadata>
Created by potrace 1.14, written by Peter Selinger 2001-2017
</metadata>
<g transform="translate(0.000000,512.000000) scale(0.100000,-0.100000)"
fill="#000000" stroke="none">
<path d="M1711 4304 c-103 -22 -184 -52 -257 -96 -113 -68 -159 -110 -273
-254 -18 -23 -48 -87 -156 -334 l-111 -255 -245 -5 c-276 -6 -293 -10 -329
-80 -42 -83 -13 -186 63 -221 32 -14 65 -19 136 -19 l94 0 -66 -66 c-120 -118
-197 -261 -231 -424 -21 -104 -22 -827 0 -907 19 -73 54 -140 103 -194 l40
-46 2 -174 c1 -194 15 -272 64 -356 38 -65 119 -142 185 -176 92 -48 152 -56
396 -56 189 0 232 3 289 19 155 44 272 157 319 305 22 71 24 87 25 208 l1 107
800 0 800 0 0 -105 c0 -183 39 -295 139 -393 69 -68 136 -106 221 -126 90 -21
470 -21 560 0 128 29 249 125 306 240 43 89 52 142 54 331 l1 176 40 45 c45
52 94 146 109 212 6 28 9 204 7 460 -3 390 -4 419 -24 485 -50 162 -121 279
-237 386 l-49 47 109 3 c123 5 151 17 183 79 25 50 26 102 2 155 -16 36 -29
50 -63 65 -39 18 -67 20 -284 20 l-242 0 -102 255 c-56 140 -118 282 -138 315
-117 191 -304 323 -533 376 -19 5 -396 9 -839 10 -654 2 -817 0 -869 -12z
m1704 -333 c108 -43 189 -109 247 -202 19 -30 69 -135 112 -234 43 -99 93
-215 112 -257 l33 -78 -1359 0 -1360 0 10 24 c5 14 14 33 19 43 6 10 49 108
96 218 113 263 131 297 188 360 57 64 123 107 209 134 61 19 86 20 848 18
l785 -2 60 -24z m-1897 -1591 c106 -48 108 -226 3 -279 -38 -20 -57 -21 -318
-21 -254 0 -282 2 -321 20 -105 47 -108 225 -5 279 35 19 57 20 318 20 256 1
284 -1 323 -19z m2718 1 c35 -16 49 -29 64 -63 39 -85 13 -181 -59 -217 -38
-20 -57 -21 -318 -21 -254 0 -282 2 -321 20 -108 49 -108 224 1 282 28 14 70
17 310 18 257 0 281 -1 323 -19z m-1267 -157 c60 -16 153 -63 191 -97 56 -50
102 -122 204 -319 l107 -208 -900 0 c-496 0 -901 3 -901 6 0 5 138 273 187
364 74 134 175 217 314 254 77 21 719 21 798 0z"/>
</g>
</svg>
